<svg width="16" height="16" viewBox="0 0 16 16" fill="none" xmlns="http://www.w3.org/2000/svg">
<path d="M15.6643 0.335683C15.5582 0.229276 15.4321 0.144854 15.2933 0.0872515C15.1545 0.0296493 15.0056 0 14.8553 0C14.7051 0 14.5562 0.0296493 14.4174 0.0872515C14.2786 0.144854 14.1525 0.229276 14.0464 0.335683L7.9997 6.38465L1.95302 0.335683C1.84678 0.229448 1.72066 0.145178 1.58186 0.0876841C1.44306 0.0301901 1.29429 0.000598232 1.14405 0.000598232C0.993812 0.000598232 0.845043 0.0301901 0.70624 0.0876841C0.567437 0.145178 0.441319 0.229448 0.335083 0.335683C0.228848 0.441918 0.144578 0.568038 0.0870838 0.70684C0.0295897 0.845643 0 0.994411 0 1.14465C0 1.29489 0.0295897 1.44366 0.0870838 1.58246C0.144578 1.72126 0.228848 1.84738 0.335083 1.95362L6.38405 8.0003L0.335083 14.047C0.228848 14.1532 0.144578 14.2793 0.0870838 14.4181C0.0295897 14.5569 0 14.7057 0 14.8559C0 15.0062 0.0295897 15.155 0.0870838 15.2938C0.144578 15.4326 0.228848 15.5587 0.335083 15.6649C0.441319 15.7712 0.567437 15.8554 0.70624 15.9129C0.845043 15.9704 0.993812 16 1.14405 16C1.29429 16 1.44306 15.9704 1.58186 15.9129C1.72066 15.8554 1.84678 15.7712 1.95302 15.6649L7.9997 9.61595L14.0464 15.6649C14.1526 15.7712 14.2787 15.8554 14.4175 15.9129C14.5563 15.9704 14.7051 16 14.8553 16C15.0056 16 15.1544 15.9704 15.2932 15.9129C15.432 15.8554 15.5581 15.7712 15.6643 15.6649C15.7706 15.5587 15.8548 15.4326 15.9123 15.2938C15.9698 15.155 15.9994 15.0062 15.9994 14.8559C15.9994 14.7057 15.9698 14.5569 15.9123 14.4181C15.8548 14.2793 15.7706 14.1532 15.6643 14.047L9.61535 8.0003L15.6643 1.95362C15.7707 1.84748 15.8551 1.72139 15.9127 1.58257C15.9704 1.44376 16 1.29494 16 1.14465C16 0.994358 15.9704 0.845542 15.9127 0.706726C15.8551 0.56791 15.7707 0.441822 15.6643 0.335683Z" fill="white"/>
</svg>
