<svg width="23" height="38" viewBox="0 0 23 38" fill="none" xmlns="http://www.w3.org/2000/svg">
<path fill-rule="evenodd" clip-rule="evenodd" d="M0.547207 0.169774C0.233679 0.268944 0 0.39293 0 0.460121C0 0.524691 0.309763 1.49639 0.688431 2.61951C1.60678 5.34387 2.82814 8.91542 3.04492 9.51088C3.14115 9.77519 3.40573 10.5812 3.63276 11.3021C4.0468 12.6165 4.29991 13.3472 4.51056 13.8359C4.57273 13.9801 4.70292 14.3536 4.80002 14.666C4.89711 14.9784 5.08054 15.5066 5.20775 15.84C5.46822 16.5224 5.44756 16.7738 5.11871 16.9233C4.89746 17.0239 4.8937 17.0402 4.94754 17.6591C4.97784 18.0072 5.05672 18.528 5.12282 18.8163C5.18893 19.1047 5.30493 19.8517 5.38041 20.4765C5.76214 23.6325 6.10228 25.8962 6.27187 26.4079C6.34962 26.6427 6.53007 27.0222 6.67269 27.2512C6.95111 27.6982 7.12438 28.5167 7.39308 30.6557C7.46855 31.2564 7.58736 32.141 7.65723 32.6216C7.72701 33.1022 7.8255 33.9475 7.87593 34.5002C7.92645 35.0528 8.00954 35.6545 8.0605 35.8373C8.21975 36.4079 8.51919 36.6224 10.0686 37.2759C11.758 37.9884 11.9115 38.0129 14.5776 37.9971C16.0189 37.9885 16.4216 37.9579 16.854 37.8238C17.1429 37.7343 17.6748 37.575 18.036 37.47C19.0587 37.1724 19.6736 36.7614 19.9957 36.1603C20.1505 35.8717 20.2139 35.4264 20.3117 33.9432C20.4423 31.9625 20.7412 28.9936 20.8717 28.381C21.0064 27.7491 21.1518 27.3763 21.3648 27.117C21.797 26.591 21.9962 25.7074 22.3242 22.8609C22.42 22.03 22.5354 21.075 22.5808 20.7386C22.9341 18.1172 23.0326 17.2363 22.9911 17.071C22.8551 16.5302 21.6713 16.4072 16.066 16.3518C10.7789 16.2997 11.383 16.4114 9.76813 15.1867L8.82746 14.4733L8.56156 14.7225C8.31589 14.9528 7.7925 15.899 7.79232 16.113C7.79223 16.2488 7.45428 16.5883 7.31936 16.5883C7.1995 16.5883 6.6438 15.0987 5.52671 11.7826C4.98029 10.1605 3.06611 4.58222 2.49851 2.95774C2.37252 2.59732 2.08928 1.78141 1.86909 1.14471C1.4146 -0.169242 1.47615 -0.123894 0.547207 0.169774Z" fill="#F0E9E9"/>
</svg>
